<svg width="57" height="56" viewBox="0 0 57 56" fill="none" xmlns="http://www.w3.org/2000/svg">
<rect x="4.5" y="4" width="48" height="48" rx="24" fill="#7F56D9"/>
<path d="M25.5 26.5L27.5 28.5L32 24M36.5 37V23.8C36.5 22.1198 36.5 21.2798 36.173 20.638C35.8854 20.0735 35.4265 19.6146 34.862 19.327C34.2202 19 33.3802 19 31.7 19H25.3C23.6198 19 22.7798 19 22.138 19.327C21.5735 19.6146 21.1146 20.0735 20.827 20.638C20.5 21.2798 20.5 22.1198 20.5 23.8V37L23.25 35L25.75 37L28.5 35L31.25 37L33.75 35L36.5 37Z" stroke="white" stroke-width="2" stroke-linecap="round" stroke-linejoin="round"/>
<rect x="4.5" y="4" width="48" height="48" rx="24" stroke="#6941C6" stroke-width="8"/>
</svg>
