<svg width="57" height="56" viewBox="0 0 57 56" fill="none" xmlns="http://www.w3.org/2000/svg">
<rect x="4.5" y="4" width="48" height="48" rx="24" fill="#F4EBFF"/>
<path d="M26.9995 29.5002L37.4995 19.0002M27.1271 29.8282L29.7552 36.5862C29.9867 37.1816 30.1025 37.4793 30.2693 37.5662C30.4139 37.6415 30.5862 37.6416 30.7308 37.5664C30.8977 37.4797 31.0139 37.1822 31.2461 36.5871L37.8364 19.6994C38.0461 19.1622 38.1509 18.8936 38.0935 18.722C38.0437 18.5729 37.9268 18.456 37.7777 18.4062C37.6061 18.3488 37.3375 18.4536 36.8003 18.6633L19.9126 25.2536C19.3175 25.4858 19.02 25.602 18.9333 25.7689C18.8581 25.9135 18.8582 26.0858 18.9335 26.2304C19.0204 26.3972 19.3181 26.513 19.9135 26.7445L26.6715 29.3726C26.7923 29.4196 26.8527 29.4431 26.9036 29.4794C26.9487 29.5115 26.9881 29.551 27.0203 29.5961C27.0566 29.647 27.0801 29.7074 27.1271 29.8282Z" stroke="#7F56D9" stroke-width="2" stroke-linecap="round" stroke-linejoin="round"/>
<rect x="4.5" y="4" width="48" height="48" rx="24" stroke="#F9F5FF" stroke-width="8"/>
</svg>
