<svg width="57" height="56" viewBox="0 0 57 56" fill="none" xmlns="http://www.w3.org/2000/svg">
<rect x="4.5" y="4" width="48" height="48" rx="24" fill="#F4EBFF"/>
<path d="M25.5 33.5H20M23 28H18.5M25.5 22.5H20.5M33.5 19L26.9036 28.235C26.6116 28.6438 26.4656 28.8481 26.4719 29.0185C26.4774 29.1669 26.5486 29.3051 26.6661 29.3958C26.8011 29.5 27.0522 29.5 27.5546 29.5H32.5L31.5 37L38.0964 27.765C38.3884 27.3562 38.5344 27.1519 38.5281 26.9815C38.5226 26.8331 38.4514 26.6949 38.3339 26.6042C38.1989 26.5 37.9478 26.5 37.4454 26.5H32.5L33.5 19Z" stroke="#7F56D9" stroke-width="2" stroke-linecap="round" stroke-linejoin="round"/>
<rect x="4.5" y="4" width="48" height="48" rx="24" stroke="#F9F5FF" stroke-width="8"/>
</svg>
