<svg width="57" height="56" viewBox="0 0 57 56" fill="none" xmlns="http://www.w3.org/2000/svg">
<rect x="4.5" y="4" width="48" height="48" rx="24" fill="#7F56D9"/>
<path d="M19.5 32V23.2C19.5 22.0799 19.5 21.5198 19.718 21.092C19.9097 20.7157 20.2157 20.4097 20.592 20.218C21.0198 20 21.5799 20 22.7 20H34.3C35.4201 20 35.9802 20 36.408 20.218C36.7843 20.4097 37.0903 20.7157 37.282 21.092C37.5 21.5198 37.5 22.0799 37.5 23.2V32H32.1627C31.9182 32 31.7959 32 31.6808 32.0276C31.5787 32.0521 31.4812 32.0925 31.3917 32.1474C31.2908 32.2092 31.2043 32.2957 31.0314 32.4686L30.9686 32.5314C30.7957 32.7043 30.7092 32.7908 30.6083 32.8526C30.5188 32.9075 30.4213 32.9479 30.3192 32.9724C30.2041 33 30.0818 33 29.8373 33H27.1627C26.9182 33 26.7959 33 26.6808 32.9724C26.5787 32.9479 26.4812 32.9075 26.3917 32.8526C26.2908 32.7908 26.2043 32.7043 26.0314 32.5314L25.9686 32.4686C25.7957 32.2957 25.7092 32.2092 25.6083 32.1474C25.5188 32.0925 25.4213 32.0521 25.3192 32.0276C25.2041 32 25.0818 32 24.8373 32H19.5ZM19.5 32C18.9477 32 18.5 32.4477 18.5 33V33.3333C18.5 33.9533 18.5 34.2633 18.5681 34.5176C18.7531 35.2078 19.2922 35.7469 19.9824 35.9319C20.2367 36 20.5467 36 21.1667 36H35.8333C36.4533 36 36.7633 36 37.0176 35.9319C37.7078 35.7469 38.2469 35.2078 38.4319 34.5176C38.5 34.2633 38.5 33.9533 38.5 33.3333C38.5 33.0233 38.5 32.8683 38.4659 32.7412C38.3735 32.3961 38.1039 32.1265 37.7588 32.0341C37.6317 32 37.4767 32 37.1667 32H36.5" stroke="white" stroke-width="2" stroke-linecap="round" stroke-linejoin="round"/>
<rect x="4.5" y="4" width="48" height="48" rx="24" stroke="#6941C6" stroke-width="8"/>
</svg>
