<svg width="57" height="56" viewBox="0 0 57 56" fill="none" xmlns="http://www.w3.org/2000/svg">
<rect x="4.5" y="4" width="48" height="48" rx="24" fill="#7F56D9"/>
<path d="M22.3069 34.5304C22.3246 34.5005 22.3427 34.4709 22.3613 34.4413C23.7158 32.2881 24.4999 29.7418 24.4999 27C24.4999 24.7909 26.2908 23 28.4999 23C30.709 23 32.4999 24.7909 32.4999 27C32.4999 28.017 32.4307 29.0186 32.2966 30M30.1792 36.8436C30.7909 35.6226 31.2924 34.3369 31.6707 33M35.5097 34.132C36.1547 31.8657 36.5 29.4732 36.5 27C36.5 22.5817 32.9183 19 28.5 19C27.0429 19 25.6767 19.3896 24.5 20.0703M19.5 31.3641C20.1407 30.0454 20.5 28.5646 20.5 27C20.5 25.5429 20.8896 24.1767 21.5703 23M28.4999 27C28.4999 30.5172 27.4911 33.7988 25.7471 36.5712" stroke="white" stroke-width="2" stroke-linecap="round" stroke-linejoin="round"/>
<rect x="4.5" y="4" width="48" height="48" rx="24" stroke="#6941C6" stroke-width="8"/>
</svg>
