<svg width="57" height="56" viewBox="0 0 57 56" fill="none" xmlns="http://www.w3.org/2000/svg">
<rect x="4.5" y="4" width="48" height="48" rx="24" fill="#F4EBFF"/>
<path d="M27.802 37.6149C28.0234 37.7441 28.1341 37.8087 28.2903 37.8422C28.4116 37.8682 28.5884 37.8682 28.7097 37.8422C28.8659 37.8087 28.9766 37.7441 29.198 37.6149C31.146 36.4785 36.5 32.9085 36.5 28.0001V24.2001C36.5 23.1262 36.5 22.5892 36.3345 22.2081C36.1662 21.8207 35.9986 21.6146 35.6536 21.371C35.3141 21.1313 34.6486 20.9929 33.3177 20.7161C31.8508 20.411 30.7243 19.8601 29.6944 19.0634C29.2005 18.6813 28.9536 18.4903 28.7603 18.4382C28.5564 18.3832 28.4436 18.3832 28.2397 18.4382C28.0464 18.4903 27.7995 18.6813 27.3056 19.0634C26.2757 19.8601 25.1492 20.411 23.6823 20.7161C22.3514 20.9929 21.6859 21.1313 21.3464 21.371C21.0014 21.6146 20.8338 21.8207 20.6655 22.2081C20.5 22.5892 20.5 23.1262 20.5 24.2001V28.0001C20.5 32.9085 25.854 36.4785 27.802 37.6149Z" stroke="#7F56D9" stroke-width="2" stroke-linecap="round" stroke-linejoin="round"/>
<rect x="4.5" y="4" width="48" height="48" rx="24" stroke="#F9F5FF" stroke-width="8"/>
</svg>
